<svg xmlns="http://www.w3.org/2000/svg" width="32" height="28" viewBox="0 0 16 14">
  <metadata><?xpacket begin="﻿" id="W5M0MpCehiHzreSzNTczkc9d"?>
<x:xmpmeta xmlns:x="adobe:ns:meta/" x:xmptk="Adobe XMP Core 5.6-c138 79.159824, 2016/09/14-01:09:01        ">
   <rdf:RDF xmlns:rdf="http://www.w3.org/1999/02/22-rdf-syntax-ns#">
      <rdf:Description rdf:about=""/>
   </rdf:RDF>
</x:xmpmeta>
                                                                                                    
                                                                                                    
                                                                                                    
                                                                                                    
                                                                                                    
                                                                                                    
                                                                                                    
                                                                                                    
                                                                                                    
                                                                                                    
                                                                                                    
                                                                                                    
                                                                                                    
                                                                                                    
                                                                                                    
                                                                                                    
                                                                                                    
                                                                                                    
                                                                                                    
                                                                                                    
                           
<?xpacket end="w"?></metadata>
<defs>
    <style>
      .cls-1 {
        fill-rule: evenodd;
      }
    </style>
  </defs>
  <path id="speach_bubble" data-name="speach bubble" class="cls-1" d="M624.015,330.711a9.79,9.79,0,0,1-2.942-.446,7.165,7.165,0,0,1-4.018,1.749,5.2,5.2,0,0,0,1.077-3.351,5.7,5.7,0,0,1-2.12-4.312c0-3.509,3.583-6.354,8-6.354s8,2.845,8,6.354S628.428,330.711,624.015,330.711Zm0-11.713c-3.868,0-7,2.438-7,5.445a4.989,4.989,0,0,0,1.98,3.7,5.614,5.614,0,0,1-.286,2.248,6.6,6.6,0,0,0,2.11-1.312,13.588,13.588,0,0,0,3.2.726c3.861,0,7-2.349,7-5.358S627.874,319,624.013,319Z" transform="translate(-616 -318)"/>
</svg>
