<svg id="gif" xmlns="http://www.w3.org/2000/svg" width="30" height="30" viewBox="0 0 30 30">
  <metadata><?xpacket begin="﻿" id="W5M0MpCehiHzreSzNTczkc9d"?>
<x:xmpmeta xmlns:x="adobe:ns:meta/" x:xmptk="Adobe XMP Core 5.6-c138 79.159824, 2016/09/14-01:09:01        ">
   <rdf:RDF xmlns:rdf="http://www.w3.org/1999/02/22-rdf-syntax-ns#">
      <rdf:Description rdf:about=""/>
   </rdf:RDF>
</x:xmpmeta>
                                                                                                    
                                                                                                    
                                                                                                    
                                                                                                    
                                                                                                    
                                                                                                    
                                                                                                    
                                                                                                    
                                                                                                    
                                                                                                    
                                                                                                    
                                                                                                    
                                                                                                    
                                                                                                    
                                                                                                    
                                                                                                    
                                                                                                    
                                                                                                    
                                                                                                    
                                                                                                    
                           
<?xpacket end="w"?></metadata>
<defs>
    <style>
      .cls-1 {
        fill: #fff;
        opacity: 0.7;
      }

      .cls-2 {
        fill: #262626;
        fill-rule: evenodd;
      }
    </style>
  </defs>
  <rect id="Rectangle_4_copy_2" data-name="Rectangle 4 copy 2" class="cls-1" width="30" height="30" rx="15" ry="15"/>
  <path id="gif-2" data-name="gif" class="cls-2" d="M448.005,437.573h-0.02a1.788,1.788,0,0,0-1.65-.854,2.179,2.179,0,0,0-1.7.72,2.578,2.578,0,0,0-.645,1.784,2.515,2.515,0,0,0,.66,1.764,2.211,2.211,0,0,0,1.71.721,1.846,1.846,0,0,0,1.57-.716h0.02v0.348a1.4,1.4,0,0,1-1.52,1.64,2.36,2.36,0,0,1-1.68-.676l-0.69.924a3.33,3.33,0,0,0,1.11.577,4.213,4.213,0,0,0,1.27.208,2.62,2.62,0,0,0,2.035-.74,2.964,2.964,0,0,0,.675-2.072v-4.343h-1.14v0.715Zm-0.39.562a1.572,1.572,0,0,1,.39,1.078,1.546,1.546,0,0,1-.395,1.069,1.323,1.323,0,0,1-1.035.442,1.23,1.23,0,0,1-1-.452,1.724,1.724,0,0,1,0-2.147,1.264,1.264,0,0,1,1-.432A1.305,1.305,0,0,1,447.615,438.135Zm4.19,3.493v-4.77h-1.2v4.77h1.2Zm-0.61-5.674a0.8,0.8,0,0,0,.555-0.2,0.7,0.7,0,0,0,0-1.024,0.8,0.8,0,0,0-.555-0.2,0.748,0.748,0,0,0-.54.213,0.683,0.683,0,0,0,0,1,0.749,0.749,0,0,0,.54.214h0Zm3.46,5.674v-3.816h1.11v-0.954h-1.11v-0.775q0-1.074.81-1.074a1.59,1.59,0,0,1,.46.07l0.08-1.014A2.319,2.319,0,0,0,455.4,434a1.749,1.749,0,0,0-1.49.6,2.524,2.524,0,0,0-.45,1.56v0.706h-0.91v0.954h0.91v3.816h1.2Z" transform="translate(-435 -425)"/>
</svg>
