<svg xmlns="http://www.w3.org/2000/svg" width="36" height="32" viewBox="0 0 18 16">
  <metadata><?xpacket begin="﻿" id="W5M0MpCehiHzreSzNTczkc9d"?>
<x:xmpmeta xmlns:x="adobe:ns:meta/" x:xmptk="Adobe XMP Core 5.6-c138 79.159824, 2016/09/14-01:09:01        ">
   <rdf:RDF xmlns:rdf="http://www.w3.org/1999/02/22-rdf-syntax-ns#">
      <rdf:Description rdf:about=""/>
   </rdf:RDF>
</x:xmpmeta>
                                                                                                    
                                                                                                    
                                                                                                    
                                                                                                    
                                                                                                    
                                                                                                    
                                                                                                    
                                                                                                    
                                                                                                    
                                                                                                    
                                                                                                    
                                                                                                    
                                                                                                    
                                                                                                    
                                                                                                    
                                                                                                    
                                                                                                    
                                                                                                    
                                                                                                    
                                                                                                    
                           
<?xpacket end="w"?></metadata>
<defs>
    <style>
      .cls-1 {
        fill-rule: evenodd;
      }
    </style>
  </defs>
  <path id="heart" class="cls-1" d="M579.261,310.786L578,312l-1.261-1.214c-4.68-4-7.739-6.7-7.739-10A4.8,4.8,0,0,1,573.948,296,5.489,5.489,0,0,1,578,297.826,5.489,5.489,0,0,1,582.052,296,4.8,4.8,0,0,1,587,300.781C587,304.089,583.941,306.786,579.261,310.786Zm2.359-13.744c-1.371,0-2.736,1.284-3.62,2.251-0.883-.967-2.249-2.251-3.62-2.251-2.488,0-4.419,1.6-4.419,3.905,0,2.832,2.732,5.141,6.913,8.565l1.126,1.04,1.127-1.04c4.18-3.424,6.912-5.733,6.912-8.565C586.039,298.643,584.108,297.042,581.62,297.042Z" transform="translate(-569 -296)"/>
</svg>
