<svg xmlns="http://www.w3.org/2000/svg" xmlns:xlink="http://www.w3.org/1999/xlink" width="116" height="1643" viewBox="0 0 116 1643"><svg width="32.656" height="31.311999999999998" viewBox="-10 -10 32.656 31.311999999999998" id="back" y="0"><defs><style>.cls-1{fill-rule:evenodd}</style></defs><path id="back" class="cls-1" d="M680 215h-8.828l3.242 3.243-1.414 1.414-4.657-4.657H668v-.343l-.657-.657.657-.657V213h.343l4.657-4.657 1.414 1.414-3.242 3.243H680v2z" transform="translate(-667.344 -208.344)"></path></svg><svg width="45.312" height="42.623999999999995" viewBox="-10 -10 32.656 31.311999999999998" id="back@2x" y="32"><defs><style>.cls-1{fill-rule:evenodd}</style></defs><path id="back" class="cls-1" d="M680 215h-8.828l3.242 3.243-1.414 1.414-4.657-4.657H668v-.343l-.657-.657.657-.657V213h.343l4.657-4.657 1.414 1.414-3.242 3.243H680v2z" transform="translate(-667.344 -208.344)"></path></svg><svg width="29.875999999999998" height="29.875999999999998" viewBox="-10 -10 29.875999999999998 29.875999999999998" id="close" y="75"><defs><style>.cls-1{fill:#262626;fill-rule:evenodd}</style></defs><path id="close" class="cls-1" d="M639.45 272.743l-.707.707-4.243-4.243-4.243 4.243-.707-.707 4.243-4.243-4.243-4.243.707-.707 4.243 4.243 4.243-4.243.707.707-4.243 4.243z" transform="translate(-629.562 -263.562)"></path></svg><svg width="39.751999999999995" height="39.751999999999995" viewBox="-10 -10 29.875999999999998 29.875999999999998" id="close@2x" y="105"><defs><style>.cls-1{fill:#262626;fill-rule:evenodd}</style></defs><path id="close" class="cls-1" d="M639.45 272.743l-.707.707-4.243-4.243-4.243 4.243-.707-.707 4.243-4.243-4.243-4.243.707-.707 4.243 4.243 4.243-4.243.707.707-4.243 4.243z" transform="translate(-629.562 -263.562)"></path></svg><svg width="36" height="34" viewBox="-10 -10 36 34" id="feedback" y="145"><defs><style>.cls-1{fill-rule:evenodd}</style></defs><path id="speach_bubble" data-name="speach bubble" class="cls-1" d="M624.015 330.711a9.79 9.79 0 0 1-2.942-.446 7.165 7.165 0 0 1-4.018 1.749 5.2 5.2 0 0 0 1.077-3.351 5.7 5.7 0 0 1-2.12-4.312c0-3.509 3.583-6.354 8-6.354s8 2.845 8 6.354-3.584 6.36-7.997 6.36zm0-11.713c-3.868 0-7 2.438-7 5.445a4.989 4.989 0 0 0 1.98 3.7 5.617 5.617 0 0 1-.286 2.248 6.6 6.6 0 0 0 2.11-1.312 13.6 13.6 0 0 0 3.2.726c3.861 0 7-2.349 7-5.358S627.874 319 624.013 319z" transform="translate(-616 -318)"></path></svg><svg width="52" height="48" viewBox="-10 -10 36 34" id="feedback@2x" y="179"><defs><style>.cls-1{fill-rule:evenodd}</style></defs><path id="speach_bubble" data-name="speach bubble" class="cls-1" d="M624.015 330.711a9.79 9.79 0 0 1-2.942-.446 7.165 7.165 0 0 1-4.018 1.749 5.2 5.2 0 0 0 1.077-3.351 5.7 5.7 0 0 1-2.12-4.312c0-3.509 3.583-6.354 8-6.354s8 2.845 8 6.354-3.584 6.36-7.997 6.36zm0-11.713c-3.868 0-7 2.438-7 5.445a4.989 4.989 0 0 0 1.98 3.7 5.614 5.614 0 0 1-.286 2.248 6.6 6.6 0 0 0 2.11-1.312 13.588 13.588 0 0 0 3.2.726c3.861 0 7-2.349 7-5.358S627.874 319 624.013 319z" transform="translate(-616 -318)"></path></svg><svg id="gif" width="50" height="50" viewBox="-10 -10 50 50" y="227"><defs><style>.cls-1{fill:#fff;opacity:.7}.cls-2{fill:#262626;fill-rule:evenodd}</style></defs><rect id="Rectangle_4_copy_2" data-name="Rectangle 4 copy 2" class="cls-1" width="30" height="30" rx="15" ry="15"></rect><path id="gif-2" data-name="gif" class="cls-2" d="M448.005 437.573h-.02a1.788 1.788 0 0 0-1.65-.854 2.179 2.179 0 0 0-1.7.72 2.578 2.578 0 0 0-.645 1.784 2.515 2.515 0 0 0 .66 1.764 2.211 2.211 0 0 0 1.71.721 1.846 1.846 0 0 0 1.57-.716h.02v.348a1.4 1.4 0 0 1-1.52 1.64 2.36 2.36 0 0 1-1.68-.676l-.69.924a3.33 3.33 0 0 0 1.11.577 4.213 4.213 0 0 0 1.27.208 2.62 2.62 0 0 0 2.035-.74 2.964 2.964 0 0 0 .675-2.072v-4.343h-1.14v.715zm-.39.562a1.572 1.572 0 0 1 .39 1.078 1.546 1.546 0 0 1-.395 1.069 1.323 1.323 0 0 1-1.035.442 1.23 1.23 0 0 1-1-.452 1.724 1.724 0 0 1 0-2.147 1.264 1.264 0 0 1 1-.432 1.305 1.305 0 0 1 1.04.442zm4.19 3.493v-4.77h-1.2v4.77h1.2zm-.61-5.674a.8.8 0 0 0 .555-.2.7.7 0 0 0 0-1.024.8.8 0 0 0-.555-.2.748.748 0 0 0-.54.213.683.683 0 0 0 0 1 .749.749 0 0 0 .54.214zm3.46 5.674v-3.816h1.11v-.954h-1.11v-.775q0-1.074.81-1.074a1.59 1.59 0 0 1 .46.07l.08-1.014a2.319 2.319 0 0 0-.605-.065 1.749 1.749 0 0 0-1.49.6 2.524 2.524 0 0 0-.45 1.56v.706h-.91v.954h.91v3.816h1.2z" transform="translate(-435 -425)"></path></svg><svg id="gif@2x" width="80" height="80" viewBox="-10 -10 50 50" y="277"><defs><style>.cls-1{fill:#fff;opacity:.7}.cls-2{fill:#262626;fill-rule:evenodd}</style></defs><rect id="Rectangle_4_copy_2" data-name="Rectangle 4 copy 2" class="cls-1" width="30" height="30" rx="15" ry="15"></rect><path id="gif-2" data-name="gif" class="cls-2" d="M448.005 437.573h-.02a1.788 1.788 0 0 0-1.65-.854 2.179 2.179 0 0 0-1.7.72 2.578 2.578 0 0 0-.645 1.784 2.515 2.515 0 0 0 .66 1.764 2.211 2.211 0 0 0 1.71.721 1.846 1.846 0 0 0 1.57-.716h.02v.348a1.4 1.4 0 0 1-1.52 1.64 2.36 2.36 0 0 1-1.68-.676l-.69.924a3.311 3.311 0 0 0 1.11.576 4.184 4.184 0 0 0 1.27.209 2.62 2.62 0 0 0 2.035-.74 2.964 2.964 0 0 0 .675-2.072v-4.343h-1.14v.715zm-.39.562a1.572 1.572 0 0 1 .39 1.078 1.546 1.546 0 0 1-.395 1.069 1.323 1.323 0 0 1-1.035.442 1.23 1.23 0 0 1-1-.452 1.724 1.724 0 0 1 0-2.147 1.264 1.264 0 0 1 1-.432 1.305 1.305 0 0 1 1.04.442zm4.19 3.493v-4.77h-1.2v4.77h1.2zm-.61-5.674a.8.8 0 0 0 .555-.2.7.7 0 0 0 0-1.024.8.8 0 0 0-.555-.2.748.748 0 0 0-.54.213.683.683 0 0 0 0 1 .749.749 0 0 0 .54.214zm3.46 5.674v-3.816h1.11v-.954h-1.11v-.775q0-1.074.81-1.074a1.59 1.59 0 0 1 .46.07l.08-1.014a2.319 2.319 0 0 0-.605-.065 1.749 1.749 0 0 0-1.49.6 2.524 2.524 0 0 0-.45 1.56v.706h-.91v.954h.91v3.816h1.2z" transform="translate(-435 -425)"></path></svg><svg width="36" height="36" viewBox="-10 -10 36 36" id="grid" y="357"><defs><style>.cls-1{fill-rule:evenodd}</style></defs><path id="sort_cards" data-name="sort cards" class="cls-1" d="M445 341v-7h7v7h-7zm5-5h-3v3h3v-3zm-5-11h7v7h-7v-7zm2 5h3v-3h-3v3zm-11 4h7v7h-7v-7zm2 5h3v-3h-3v3zm-2-14h7v7h-7v-7zm2 5h3v-3h-3v3z" transform="translate(-436 -325)"></path></svg><svg width="52" height="52" viewBox="-10 -10 36 36" id="grid@2x" y="393"><defs><style>.cls-1{fill-rule:evenodd}</style></defs><path id="sort_cards" data-name="sort cards" class="cls-1" d="M445 341v-7h7v7h-7zm5-5h-3v3h3v-3zm-5-11h7v7h-7v-7zm2 5h3v-3h-3v3zm-11 4h7v7h-7v-7zm2 5h3v-3h-3v3zm-2-14h7v7h-7v-7zm2 5h3v-3h-3v3z" transform="translate(-436 -325)"></path></svg><svg width="38" height="36" viewBox="-10 -10 38 36" id="heart" y="445"><defs><style>.cls-1{fill-rule:evenodd}</style></defs><path id="heart" class="cls-1" d="M579.261 310.786L578 312l-1.261-1.214c-4.68-4-7.739-6.7-7.739-10a4.8 4.8 0 0 1 4.948-4.786 5.489 5.489 0 0 1 4.052 1.826 5.489 5.489 0 0 1 4.052-1.826 4.8 4.8 0 0 1 4.948 4.781c0 3.308-3.059 6.005-7.739 10.005zm2.359-13.744c-1.371 0-2.736 1.284-3.62 2.251-.883-.967-2.249-2.251-3.62-2.251-2.488 0-4.419 1.6-4.419 3.905 0 2.832 2.732 5.141 6.913 8.565l1.126 1.04 1.127-1.04c4.18-3.424 6.912-5.733 6.912-8.565 0-2.304-1.931-3.905-4.419-3.905z" transform="translate(-569 -296)"></path></svg><svg width="56" height="52" viewBox="-10 -10 38 36" id="heart@2x" y="481"><defs><style>.cls-1{fill-rule:evenodd}</style></defs><path id="heart" class="cls-1" d="M579.261 310.786L578 312l-1.261-1.214c-4.68-4-7.739-6.7-7.739-10a4.8 4.8 0 0 1 4.948-4.786 5.489 5.489 0 0 1 4.052 1.826 5.489 5.489 0 0 1 4.052-1.826 4.8 4.8 0 0 1 4.948 4.781c0 3.308-3.059 6.005-7.739 10.005zm2.359-13.744c-1.371 0-2.736 1.284-3.62 2.251-.883-.967-2.249-2.251-3.62-2.251-2.488 0-4.419 1.6-4.419 3.905 0 2.832 2.732 5.141 6.913 8.565l1.126 1.04 1.127-1.04c4.18-3.424 6.912-5.733 6.912-8.565 0-2.304-1.931-3.905-4.419-3.905z" transform="translate(-569 -296)"></path></svg><svg width="37" height="32" viewBox="-10 -10 37 32" id="list" y="533"><defs><style>.cls-1{fill-rule:evenodd}</style></defs><path id="sort_lines" data-name="sort lines" class="cls-1" d="M363 346v-2h11v2h-11zm0-7h11v2h-11v-2zm0-5h11v2h-11v-2zm-6 10h3v2h-3v-2zm0-5h3v2h-3v-2zm0-5h3v2h-3v-2z" transform="translate(-357 -334)"></path></svg><svg width="54" height="44" viewBox="-10 -10 37 32" id="list@2x" y="565"><defs><style>.cls-1{fill-rule:evenodd}</style></defs><path id="sort_lines" data-name="sort lines" class="cls-1" d="M363 346v-2h11v2h-11zm0-7h11v2h-11v-2zm0-5h11v2h-11v-2zm-6 10h3v2h-3v-2zm0-5h3v2h-3v-2zm0-5h3v2h-3v-2z" transform="translate(-357 -334)"></path></svg><svg id="nav-left" data-name="arrow left" width="50" height="50" viewBox="-10 -10 50 50" y="609"><defs><style>.cls-1{fill:#fff;opacity:.7}.cls-2{fill-rule:evenodd}</style></defs><rect id="Rectangle_4_copy_4" data-name="Rectangle 4 copy 4" class="cls-1" width="30" height="30" rx="15" ry="15"></rect><path class="cls-2" d="M650.016 465.284l-.75.716-4.5-4.292-.006.006-.75-.716 5.244-5.006.75.716-4.488 4.284z" transform="translate(-632 -446)"></path></svg><svg id="nav-left@2x" data-name="arrow left" width="80" height="80" viewBox="-10 -10 50 50" y="659"><defs><style>.cls-1{fill:#fff;opacity:.7}.cls-2{fill-rule:evenodd}</style></defs><rect id="Rectangle_4_copy_4" data-name="Rectangle 4 copy 4" class="cls-1" width="30" height="30" rx="15" ry="15"></rect><path class="cls-2" d="M650.016 465.284l-.75.716-4.5-4.292-.006.006-.75-.716 5.244-5.006.75.716-4.488 4.284z" transform="translate(-632 -446)"></path></svg><svg id="nav-right" data-name="arrow right" width="50" height="50" viewBox="-10 -10 50 50" y="739"><defs><style>.cls-1{fill:#fff;opacity:.7}.cls-2{fill-rule:evenodd}</style></defs><rect id="Rectangle_4_copy_4" data-name="Rectangle 4 copy 4" class="cls-1" width="30" height="30" rx="15" ry="15"></rect><path class="cls-2" d="M689.236 461.714l-.006-.006-4.5 4.292-.75-.716 4.5-4.292-4.488-4.284.75-.716 5.244 5.008z" transform="translate(-672 -446)"></path></svg><svg id="nav-right@2x" data-name="arrow right" width="80" height="80" viewBox="-10 -10 50 50" y="789"><defs><style>.cls-1{fill:#fff;opacity:.7}.cls-2{fill-rule:evenodd}</style></defs><rect id="Rectangle_4_copy_4" data-name="Rectangle 4 copy 4" class="cls-1" width="30" height="30" rx="15" ry="15"></rect><path class="cls-2" d="M689.236 461.714l-.006-.006-4.5 4.292-.75-.716 4.5-4.292-4.488-4.284.75-.716 5.244 5.008z" transform="translate(-672 -446)"></path></svg><svg id="play-small" width="50" height="50" viewBox="-10 -10 50 50" y="869"><defs><style>.cls-1{fill:#fff;opacity:.7}.cls-2{fill-rule:evenodd}</style></defs><rect id="Rectangle_4_copy_4" data-name="Rectangle 4 copy 4" class="cls-1" width="30" height="30" rx="15" ry="15"></rect><path id="Polygon_1" data-name="Polygon 1" class="cls-2" d="M595.988 461.005l-9.983 6V455zm-2 0L587 465v-8z" transform="translate(-574 -446)"></path></svg><svg width="39.719" height="39.719" viewBox="-10 -10 39.719 39.719" id="search" y="919"><defs><style>.cls-1{fill:none;stroke:#262626;stroke-width:2px;fill-rule:evenodd}</style></defs><path id="search" class="cls-1" d="M383.707 395.293l-1.414 1.414-3.393-3.393a8.019 8.019 0 1 1 1.414-1.414zM374 381a6 6 0 1 0 6 6 6 6 0 0 0-6-6z" transform="translate(-365 -378)"></path></svg><svg width="55.438" height="55.438" viewBox="-10 -10 37.719 37.719" id="search@2x" y="959"><defs><style>.cls-1{fill-rule:evenodd}</style></defs><path id="search" class="cls-1" d="M383.707 395.293l-1.414 1.414-3.393-3.393a8.019 8.019 0 1 1 1.414-1.414zM374 381a6 6 0 1 0 6 6 6 6 0 0 0-6-6z" transform="translate(-366 -379)"></path></svg><svg id="slides" width="50" height="50" viewBox="-10 -10 50 50" y="1015"><defs><style>.cls-1{fill:#fff;opacity:.7}.cls-2{fill-rule:evenodd}</style></defs><rect id="Rectangle_4_copy_3" data-name="Rectangle 4 copy 3" class="cls-1" width="30" height="30" rx="15" ry="15"></rect><path id="Rectangle_3_copy_2" data-name="Rectangle 3 copy 2" class="cls-2" d="M572 378v-3h-3v-10h10v10h-6v2h8v-8h-2v-1h3v10h-10zm6-12h-8v8h8v-8z" transform="translate(-561 -357)"></path></svg><svg id="slides@2x" width="80" height="80" viewBox="-10 -10 50 50" y="1065"><defs><style>.cls-1{fill:#fff;opacity:.7}.cls-2{fill-rule:evenodd}</style></defs><rect id="Rectangle_4_copy_3" data-name="Rectangle 4 copy 3" class="cls-1" width="30" height="30" rx="15" ry="15"></rect><path id="Rectangle_3_copy_2" data-name="Rectangle 3 copy 2" class="cls-2" d="M572 378v-3h-3v-10h10v10h-6v2h8v-8h-2v-1h3v10h-10zm6-12h-8v8h8v-8z" transform="translate(-561 -357)"></path></svg><svg id="telegram" width="68" height="68" viewBox="-10 -10 68 68" y="1145"><defs><style>.cls-1{fill:#bf8a7e}.cls-2{fill:#fff;fill-rule:evenodd}</style></defs><path class="cls-1" d="M0 0h48v48H0z"></path><path class="cls-2" d="M604.235 216.6l-23.066 8.53a.786.786 0 0 0 .067 1.51l5.861 1.641 2.188 6.587a1.029 1.029 0 0 0 1.679.381L594 232.31l5.946 4.14a1.26 1.26 0 0 0 1.949-.707l3.937-17.866a1.167 1.167 0 0 0-1.592-1.281zm-2.892 3.966l-10.714 8.99a.538.538 0 0 0-.19.348l-.413 3.479a.112.112 0 0 1-.216.021l-1.7-5.191a.535.535 0 0 1 .248-.625l12.652-7.446a.27.27 0 0 1 .332.424zm0 0" transform="translate(-570 -202)"></path></svg><svg id="telegram@2x" width="116" height="116" viewBox="-10 -10 68 68" y="1213"><defs><style>.cls-1{fill:#bf8a7e}.cls-2{fill:#fff;fill-rule:evenodd}</style></defs><path class="cls-1" d="M0 0h48v48H0z"></path><path class="cls-2" d="M604.235 216.6l-23.066 8.53a.786.786 0 0 0 .067 1.51l5.861 1.641 2.188 6.587a1.029 1.029 0 0 0 1.679.381L594 232.31l5.946 4.14a1.26 1.26 0 0 0 1.949-.707l3.937-17.866a1.167 1.167 0 0 0-1.592-1.281zm-2.892 3.966l-10.714 8.99a.538.538 0 0 0-.19.348l-.413 3.479a.112.112 0 0 1-.216.021l-1.7-5.191a.535.535 0 0 1 .248-.625l12.652-7.446a.27.27 0 0 1 .332.424zm0 0" transform="translate(-570 -202)"></path></svg><svg id="video" width="50" height="50" viewBox="-10 -10 50 50" y="1329"><defs><style>.cls-1{fill:#fff;opacity:.7}.cls-2{fill-rule:evenodd}</style></defs><rect id="Rectangle_4_copy_4" data-name="Rectangle 4 copy 4" class="cls-1" width="30" height="30" rx="15" ry="15"></rect><path id="Polygon_1" data-name="Polygon 1" class="cls-2" d="M595.988 461.005l-9.983 6V455zm-2 0L587 465v-8z" transform="translate(-574 -446)"></path></svg><svg id="video@2x" width="80" height="80" viewBox="-10 -10 50 50" y="1379"><defs><style>.cls-1{fill:#fff;opacity:.7}.cls-2{fill-rule:evenodd}</style></defs><rect id="Rectangle_4_copy_4" data-name="Rectangle 4 copy 4" class="cls-1" width="30" height="30" rx="15" ry="15"></rect><path id="Polygon_1" data-name="Polygon 1" class="cls-2" d="M595.988 461.005l-9.983 6V455zm-2 0L587 465v-8z" transform="translate(-574 -446)"></path></svg><svg id="whatsapp" width="68" height="68" viewBox="-10 -10 68 68" y="1459"><defs><style>.cls-1{fill:#bf8a7e}.cls-2{fill:#fff;fill-rule:evenodd}</style></defs><path class="cls-1" d="M0 0h48v48H0z"></path><path class="cls-2" d="M492.759 203.347a12.221 12.221 0 0 0-12.293 12.12 11.975 11.975 0 0 0 1.623 6.016l-2.017 5.97a.407.407 0 0 0 .089.412.424.424 0 0 0 .305.129.38.38 0 0 0 .106-.013l6.611-1.714a12.507 12.507 0 0 0 5.576 1.317 12.12 12.12 0 1 0 0-24.237zm7.672 17.621l-.732.723a4.307 4.307 0 0 1-3.067 1.374c-1.5 0-3.11-.84-4.794-2.5l-4.247-4.19a8.232 8.232 0 0 1-2.428-3.78 4.033 4.033 0 0 1 1.282-3.968l.733-.721a1.593 1.593 0 0 1 1.825-.271 8.528 8.528 0 0 1 2.386 2.69 1.507 1.507 0 0 1 .2 1.16 1.085 1.085 0 0 1-.495.638 10.263 10.263 0 0 0-.8.709 1.1 1.1 0 0 0 .171 1.627l3.319 3.271a1.135 1.135 0 0 0 1.656.165c.084-.067.434-.457.717-.786a1.09 1.09 0 0 1 .973-.531 1.757 1.757 0 0 1 .846.237 8.619 8.619 0 0 1 2.731 2.356 1.5 1.5 0 0 1-.275 1.8zm0 0" transform="translate(-468 -192)"></path></svg><svg id="whatsapp@2x" width="116" height="116" viewBox="-10 -10 68 68" y="1527"><defs><style>.cls-1{fill:#bf8a7e}.cls-2{fill:#fff;fill-rule:evenodd}</style></defs><path class="cls-1" d="M0 0h48v48H0z"></path><path class="cls-2" d="M492.759 203.347a12.221 12.221 0 0 0-12.293 12.12 11.975 11.975 0 0 0 1.623 6.016l-2.017 5.97a.407.407 0 0 0 .089.412.424.424 0 0 0 .305.129.38.38 0 0 0 .106-.013l6.611-1.714a12.507 12.507 0 0 0 5.576 1.317 12.12 12.12 0 1 0 0-24.237zm7.672 17.621l-.732.723a4.307 4.307 0 0 1-3.067 1.374c-1.5 0-3.11-.84-4.794-2.5l-4.247-4.19a8.232 8.232 0 0 1-2.428-3.78 4.033 4.033 0 0 1 1.282-3.968l.733-.721a1.593 1.593 0 0 1 1.825-.271 8.528 8.528 0 0 1 2.386 2.69 1.507 1.507 0 0 1 .2 1.16 1.085 1.085 0 0 1-.495.638 10.263 10.263 0 0 0-.8.709 1.1 1.1 0 0 0 .171 1.627l3.319 3.271a1.135 1.135 0 0 0 1.656.165c.084-.067.434-.457.717-.786a1.09 1.09 0 0 1 .973-.531 1.757 1.757 0 0 1 .846.237 8.633 8.633 0 0 1 2.731 2.356 1.5 1.5 0 0 1-.275 1.8zm0 0" transform="translate(-468 -192)"></path></svg></svg>