<svg id="telegram" xmlns="http://www.w3.org/2000/svg" width="96" height="96" viewBox="0 0 48 48">
  <metadata><?xpacket begin="﻿" id="W5M0MpCehiHzreSzNTczkc9d"?>
<x:xmpmeta xmlns:x="adobe:ns:meta/" x:xmptk="Adobe XMP Core 5.6-c138 79.159824, 2016/09/14-01:09:01        ">
   <rdf:RDF xmlns:rdf="http://www.w3.org/1999/02/22-rdf-syntax-ns#">
      <rdf:Description rdf:about=""/>
   </rdf:RDF>
</x:xmpmeta>
                                                                                                    
                                                                                                    
                                                                                                    
                                                                                                    
                                                                                                    
                                                                                                    
                                                                                                    
                                                                                                    
                                                                                                    
                                                                                                    
                                                                                                    
                                                                                                    
                                                                                                    
                                                                                                    
                                                                                                    
                                                                                                    
                                                                                                    
                                                                                                    
                                                                                                    
                                                                                                    
                           
<?xpacket end="w"?></metadata>
<defs>
    <style>
      .cls-1 {
        fill: #bf8a7e;
      }

      .cls-2 {
        fill: #fff;
        fill-rule: evenodd;
      }
    </style>
  </defs>
  <rect class="cls-1" width="48" height="48"/>
  <path class="cls-2" d="M604.235,216.6l-23.066,8.53a0.786,0.786,0,0,0,.067,1.51l5.861,1.641,2.188,6.587a1.029,1.029,0,0,0,1.679.381L594,232.31l5.946,4.14a1.26,1.26,0,0,0,1.949-.707l3.937-17.866a1.167,1.167,0,0,0-1.592-1.281h0Zm-2.892,3.966-10.714,8.99a0.538,0.538,0,0,0-.19.348l-0.413,3.479a0.112,0.112,0,0,1-.216.021l-1.7-5.191a0.535,0.535,0,0,1,.248-0.625l12.652-7.446a0.27,0.27,0,0,1,.332.424h0Zm0,0" transform="translate(-570 -202)"/>
</svg>
