<svg id="whatsapp" xmlns="http://www.w3.org/2000/svg" width="48" height="48" viewBox="0 0 48 48">
  <metadata><?xpacket begin="﻿" id="W5M0MpCehiHzreSzNTczkc9d"?>
<x:xmpmeta xmlns:x="adobe:ns:meta/" x:xmptk="Adobe XMP Core 5.6-c138 79.159824, 2016/09/14-01:09:01        ">
   <rdf:RDF xmlns:rdf="http://www.w3.org/1999/02/22-rdf-syntax-ns#">
      <rdf:Description rdf:about=""/>
   </rdf:RDF>
</x:xmpmeta>
                                                                                                    
                                                                                                    
                                                                                                    
                                                                                                    
                                                                                                    
                                                                                                    
                                                                                                    
                                                                                                    
                                                                                                    
                                                                                                    
                                                                                                    
                                                                                                    
                                                                                                    
                                                                                                    
                                                                                                    
                                                                                                    
                                                                                                    
                                                                                                    
                                                                                                    
                                                                                                    
                           
<?xpacket end="w"?></metadata>
<defs>
    <style>
      .cls-1 {
        fill: #bf8a7e;
      }

      .cls-2 {
        fill: #fff;
        fill-rule: evenodd;
      }
    </style>
  </defs>
  <rect class="cls-1" width="48" height="48"/>
  <path class="cls-2" d="M492.759,203.347a12.221,12.221,0,0,0-12.293,12.12,11.975,11.975,0,0,0,1.623,6.016l-2.017,5.97a0.407,0.407,0,0,0,.089.412,0.424,0.424,0,0,0,.305.129,0.38,0.38,0,0,0,.106-0.013l6.611-1.714a12.507,12.507,0,0,0,5.576,1.317,12.12,12.12,0,1,0,0-24.237h0Zm7.672,17.621-0.732.723a4.307,4.307,0,0,1-3.067,1.374c-1.5,0-3.11-.84-4.794-2.5l-4.247-4.19a8.232,8.232,0,0,1-2.428-3.78,4.033,4.033,0,0,1,1.282-3.968l0.733-.721a1.593,1.593,0,0,1,1.825-.271,8.528,8.528,0,0,1,2.386,2.69,1.507,1.507,0,0,1,.2,1.16,1.085,1.085,0,0,1-.495.638,10.263,10.263,0,0,0-.8.709,1.1,1.1,0,0,0,.171,1.627l3.319,3.271a1.135,1.135,0,0,0,1.656.165c0.084-.067.434-0.457,0.717-0.786a1.09,1.09,0,0,1,.973-0.531,1.757,1.757,0,0,1,.846.237,8.619,8.619,0,0,1,2.731,2.356,1.5,1.5,0,0,1-.275,1.8h0Zm0,0" transform="translate(-468 -192)"/>
</svg>
