<?xml version="1.0" encoding="utf-8"?>
<!-- Generator: Adobe Illustrator 19.2.1, SVG Export Plug-In . SVG Version: 6.00 Build 0)  -->
<svg version="1.1" id="Layer_1" xmlns="http://www.w3.org/2000/svg" xmlns:xlink="http://www.w3.org/1999/xlink" x="0px" y="0px"
	 viewBox="0 0 50 30" style="enable-background:new 0 0 50 30;" xml:space="preserve">
<path d="M13.3,11.6l9.3-7.8c0.1-0.1,0.2-0.2,0.3-0.4l0.7-2.3c0.1-0.3,0-0.5-0.1-0.7C23.2,0.2,23,0,22.7,0h-18C4.2,0,3.8,0.4,3.8,0.9
	v3.2c0,0.5,0.4,0.9,0.9,0.9h9l-9,7.6c-0.2,0.2-0.3,0.4-0.3,0.6c0,0.2,0.1,0.5,0.3,0.6l2.1,2C6.8,16,7,16.1,7.2,16.1c0,0,0.1,0,0.1,0
	l0.1,0c0,0,0.6-0.1,1.5-0.1c2.7,0,4.8,0.6,5.7,1.5c0.6,0.6,0.7,1.4,0.5,2.6c-0.6,3.5-3.9,4.5-5.2,4.8c-0.6,0.1-1.2,0.2-1.8,0.2
	c-2.1,0-3.2-0.7-3.3-0.9l-0.4-0.7c-0.1-0.2-0.3-0.3-0.5-0.4c-0.2-0.1-0.5,0-0.7,0.1l-2.8,1.7c-0.4,0.2-0.5,0.8-0.3,1.2l0.4,0.7
	c1.2,2,4.1,3.2,7.6,3.2h0c0.9,0,1.8-0.1,2.7-0.3c5-1,8.4-4.2,9.2-8.8c0.5-2.7-0.2-5-1.8-6.7C17,13,15.4,12.1,13.3,11.6z"/>
<path d="M47,4.6C44.4,1.6,40.7,0,36.4,0h-8.7c-0.4,0-0.8,0.3-0.9,0.7L26.4,4c0,0.2,0,0.5,0.2,0.7c0.2,0.2,0.4,0.3,0.7,0.3h9.2
	c2.7,0,5.1,1,6.7,2.8c1.5,1.8,2.1,4.2,1.7,6.8c-1,5.8-6.7,10.5-12.8,10.5h-3.9L31,8.8c0-0.2,0-0.5-0.2-0.7s-0.4-0.3-0.7-0.3h-3.3
	c-0.4,0-0.8,0.3-0.9,0.7L22.4,29c0,0.2,0,0.5,0.2,0.7c0.2,0.2,0.4,0.3,0.7,0.3h8.8c8.4,0,16.3-6.5,17.7-14.6
	C50.5,11.4,49.5,7.5,47,4.6z"/>
</svg>
