<?xml version="1.0" encoding="utf-8"?>
<!-- Generator: Adobe Illustrator 19.2.1, SVG Export Plug-In . SVG Version: 6.00 Build 0)  -->
<svg version="1.1" id="Layer_1" xmlns="http://www.w3.org/2000/svg" xmlns:xlink="http://www.w3.org/1999/xlink" x="0px" y="0px"
	 viewBox="0 0 24 24" style="enable-background:new 0 0 24 24;" xml:space="preserve">
<path d="M24,11.3L24,11.3c-0.1-1.4-0.4-2.8-0.9-4C23,7.2,22.9,7,22.8,6.8l0,0c-0.5-1.1-1.2-2.1-2-3l0,0l-0.7-0.7l0,0
	c-0.9-0.8-1.9-1.5-2.9-2l0,0l-0.5-0.2c-1.3-0.5-2.6-0.8-4-0.9c-0.2,0-0.5,0-0.7,0c0,0,0,0,0,0C5.4,0,0,5.4,0,12c0,0,0,0,0,0
	c0,0.2,0,0.4,0,0.7c0.1,1.4,0.4,2.8,0.9,4l0.2,0.5l0,0c0.5,1.1,1.2,2.1,2,2.9l0,0l0.7,0.7l0,0c0.9,0.8,1.9,1.5,2.9,2l0,0L7.3,23
	c1.2,0.5,2.6,0.9,4,0.9h0c0.2,0,0.4,0,0.7,0h0c6.6,0,12-5.4,12-12L24,11.3z M10.9,1.1l-9.9,9.9C1.6,5.7,5.7,1.6,10.9,1.1z M1,12.4
	L12.4,1c1.2,0,2.4,0.3,3.5,0.7L1.7,15.9C1.3,14.8,1,13.6,1,12.4z M2.2,16.9L16.9,2.2c0.9,0.5,1.8,1,2.5,1.7L3.9,19.4
	C3.2,18.7,2.6,17.8,2.2,16.9z M4.6,20.1L20.1,4.6c0.7,0.8,1.3,1.6,1.7,2.5L7.1,21.9C6.2,21.4,5.3,20.8,4.6,20.1z M8.1,22.3L22.3,8.1
	c0.4,1.1,0.7,2.3,0.7,3.5L11.6,23C10.4,23,9.2,22.7,8.1,22.3z M13.1,22.9l9.9-9.9C22.4,18.3,18.3,22.4,13.1,22.9z"/>
</svg>
