<?xml version="1.0" encoding="utf-8"?>
<!-- Generator: Adobe Illustrator 19.2.1, SVG Export Plug-In . SVG Version: 6.00 Build 0)  -->
<svg version="1.1" id="Слой_18" xmlns="http://www.w3.org/2000/svg" xmlns:xlink="http://www.w3.org/1999/xlink" x="0px"
	 y="0px" viewBox="0 0 40 40" style="enable-background:new 0 0 40 40;" xml:space="preserve">
<style type="text/css">
	.st0{fill:#231F20;}
</style>
<g>
	<path class="st0" d="M21,0H19H0v19V21v19h19H21h19V21V19V0H21z M1.9,1.9H19V19H1.9V1.9z M1.9,38.1V21H19v17.1H1.9z M38.1,38.1H21
		V21h17.1V38.1z M21,19V1.9h17.1V19H21z"/>
	<polygon class="st0" points="15.2,9.5 11.4,9.5 11.4,5.7 9.5,5.7 9.5,9.5 5.7,9.5 5.7,11.4 9.5,11.4 9.5,15.2 11.4,15.2 11.4,11.4 
		15.2,11.4 	"/>
	<polygon class="st0" points="15,26.4 13.6,25 10.5,28.2 7.3,25 6,26.4 9.1,29.5 6,32.7 7.3,34 10.5,30.9 13.6,34 15,32.7 
		11.8,29.5 	"/>
	<rect x="24.8" y="9.5" class="st0" width="9.5" height="1.9"/>
	<rect x="24.8" y="26.7" class="st0" width="9.5" height="1.9"/>
	<rect x="24.8" y="30.5" class="st0" width="9.5" height="1.9"/>
</g>
</svg>
