<?xml version="1.0" encoding="utf-8"?>
<!-- Generator: Adobe Illustrator 19.2.1, SVG Export Plug-In . SVG Version: 6.00 Build 0)  -->
<svg version="1.1" id="Layer_1" xmlns="http://www.w3.org/2000/svg" xmlns:xlink="http://www.w3.org/1999/xlink" x="0px" y="0px"
	 viewBox="0 0 18 20" style="enable-background:new 0 0 18 20;" xml:space="preserve">
<path d="M16.9,7c-0.1-0.7-0.7-1.3-1.5-1.3h-2.5V3.5c0-2-1.7-3.5-3.9-3.5C6.9,0,5.2,1.6,5.2,3.5v2.2H2.7C1.9,5.7,1.2,6.3,1.2,7
	L0,17.6C-0.1,18.9,0.9,20,2.3,20h13.4c1.4,0,2.4-1.1,2.3-2.4L16.9,7z M5.9,3.5c0-1.6,1.4-2.8,3.1-2.8c1.7,0,3.1,1.3,3.1,2.8v2.2H5.9
	V3.5z M16.9,18.8c-0.3,0.3-0.7,0.5-1.1,0.5H2.3c-0.4,0-0.8-0.2-1.1-0.5s-0.4-0.7-0.4-1.1L1.9,7.1c0-0.4,0.4-0.6,0.8-0.6h2.5v2.9
	c0,0.2,0.2,0.4,0.4,0.4c0.2,0,0.4-0.2,0.4-0.4V6.4h6.2v2.9c0,0.2,0.2,0.4,0.4,0.4s0.4-0.2,0.4-0.4V6.4h2.5c0.4,0,0.7,0.3,0.8,0.6
	l1.2,10.6C17.3,18.1,17.2,18.5,16.9,18.8z"/>
</svg>
