<?xml version="1.0" encoding="utf-8"?>
<!-- Generator: Adobe Illustrator 19.2.1, SVG Export Plug-In . SVG Version: 6.00 Build 0)  -->
<svg version="1.1" id="Layer_1" xmlns="http://www.w3.org/2000/svg" xmlns:xlink="http://www.w3.org/1999/xlink" x="0px" y="0px"
	 viewBox="0 0 14 24" style="enable-background:new 0 0 14 24;" xml:space="preserve">
<path d="M11,0H3C1.5,0,0,1.5,0,3v18c0,1.5,1.5,3,3,3h8c1.5,0,3-1.5,3-3V3C14,1.5,12.5,0,11,0z M13,21c0,1-1,2-2,2H3c-1,0-2-1-2-2V3
	c0-1,1-2,2-2h8c1,0,2,1,2,2V21z"/>
<path d="M3,5h4V3H3V5z"/>
</svg>
