<?xml version="1.0" encoding="utf-8"?>
<!-- Generator: Adobe Illustrator 19.2.1, SVG Export Plug-In . SVG Version: 6.00 Build 0)  -->
<svg version="1.1" id="Layer_1" xmlns="http://www.w3.org/2000/svg" xmlns:xlink="http://www.w3.org/1999/xlink" x="0px" y="0px"
	 viewBox="0 0 53 30" style="enable-background:new 0 0 53 30;" xml:space="preserve">
<path d="M19.6,21.1c-2.4,0-4.4,2-4.4,4.5c0,2.5,2,4.5,4.4,4.5s4.4-2,4.4-4.5C24.1,23.1,22.1,21.1,19.6,21.1z M19.6,27.8
	c-1.2,0-2.2-1-2.2-2.2c0-1.2,1-2.2,2.2-2.2c1.2,0,2.2,1,2.2,2.2C21.8,26.8,20.9,27.8,19.6,27.8z M53,17.8v4.8c0,1.2-1,2.2-2.1,2.2
	h-2.3c-0.4-2.9-2.9-5.1-5.8-5.1c-2.9,0-5.4,2.2-5.8,5.1H25.4c-0.4-2.9-2.9-5.1-5.8-5.1c-2.9,0-5.4,2.2-5.8,5.1H11
	c-1.2,0-2.1-1-2.1-2.2v-4.8H53L53,17.8z M42.8,21.1c-2.4,0-4.4,2-4.4,4.5c0,2.5,2,4.5,4.4,4.5c2.4,0,4.4-2,4.4-4.5
	C47.2,23.1,45.2,21.1,42.8,21.1z M42.8,27.8c-1.2,0-2.2-1-2.2-2.2c0-1.2,1-2.2,2.2-2.2c1.2,0,2.2,1,2.2,2.2
	C45,26.8,44,27.8,42.8,27.8z M52.2,13l-8.4-8.4c-0.5-0.5-1.3-0.8-2-0.8h-4.2V2.2c0-1.2-1-2.2-2.1-2.2H11C9.8,0,8.9,1,8.9,2.2v0.3
	l-8.7,1l15.3,2L0,7.1l15.5,2.2L0,10.7l8.9,1.7l0,4.2H53V15C53,14.2,52.7,13.5,52.2,13z M48.5,13.2h-8.1c-0.2,0-0.3-0.2-0.3-0.3V6.6
	c0-0.2,0.1-0.3,0.3-0.3h1.5c0.1,0,0.2,0,0.2,0.1l6.6,6.3C49,12.9,48.8,13.2,48.5,13.2z"/>
</svg>
