<?xml version="1.0" encoding="utf-8"?>
<!-- Generator: Adobe Illustrator 19.2.1, SVG Export Plug-In . SVG Version: 6.00 Build 0)  -->
<svg version="1.1" id="Layer_1" xmlns="http://www.w3.org/2000/svg" xmlns:xlink="http://www.w3.org/1999/xlink" x="0px" y="0px"
	 viewBox="0 0 14 24" style="enable-background:new 0 0 14 24;" xml:space="preserve">
<path d="M11,0H3C1.6,0,0,1.5,0,3v18c0,1.5,1.6,3,3,3h8c1.4,0,3-1.5,3-3V3C14,1.5,12.4,0,11,0z M13,21c0,1-1,2-2,2H3c-1,0-2-1-2-2V3
	c0-1,1-2,2-2h8c1,0,2,1,2,2V21z"/>
<path d="M7,17.5c-1,0-1.7,0.8-1.7,1.8c0,1,0.8,1.8,1.7,1.8c1,0,1.8-0.8,1.8-1.8C8.8,18.4,8,17.5,7,17.5z"/>
</svg>
