<?xml version="1.0" encoding="utf-8"?>
<!-- Generator: Adobe Illustrator 19.2.1, SVG Export Plug-In . SVG Version: 6.00 Build 0)  -->
<svg version="1.1" id="Layer_1" xmlns="http://www.w3.org/2000/svg" xmlns:xlink="http://www.w3.org/1999/xlink" x="0px" y="0px"
	 viewBox="0 0 20 20" style="enable-background:new 0 0 20 20;" xml:space="preserve">
<path d="M10,0C4.5,0,0,4.5,0,10c0,5.5,4.5,10,10,10c5.5,0,10-4.5,10-10C20,4.5,15.5,0,10,0z M12.1,15.5c-0.5,0.2-0.9,0.4-1.2,0.5
	c-0.3,0.1-0.7,0.2-1.1,0.2c-0.6,0-1.1-0.2-1.5-0.5C8,15.4,7.8,15,7.8,14.5c0-0.2,0-0.4,0-0.6c0-0.2,0.1-0.4,0.1-0.6L8.6,11
	c0.1-0.2,0.1-0.4,0.1-0.6c0-0.2,0.1-0.4,0.1-0.5c0-0.3-0.1-0.5-0.2-0.6C8.5,9.2,8.3,9.1,8,9.1c-0.2,0-0.3,0-0.5,0.1
	C7.3,9.2,7.1,9.3,7,9.3l0.2-0.7C7.6,8.5,8,8.3,8.4,8.2C8.8,8.1,9.1,8,9.5,8c0.6,0,1.1,0.2,1.4,0.4c0.3,0.3,0.5,0.7,0.5,1.2
	c0,0.1,0,0.3,0,0.5c0,0.2-0.1,0.5-0.1,0.7l-0.6,2.3c-0.1,0.2-0.1,0.4-0.1,0.6c0,0.2-0.1,0.4-0.1,0.5c0,0.3,0.1,0.5,0.2,0.6
	C10.7,15,11,15,11.3,15c0.2,0,0.3,0,0.5-0.1c0.2-0.1,0.3-0.1,0.4-0.1L12.1,15.5z M12,6.3c-0.3,0.3-0.7,0.4-1.1,0.4
	c-0.4,0-0.8-0.1-1.1-0.4C9.5,6,9.4,5.7,9.4,5.3c0-0.4,0.2-0.7,0.5-1c0.3-0.3,0.7-0.4,1.1-0.4c0.4,0,0.8,0.1,1.1,0.4
	c0.3,0.3,0.4,0.6,0.4,1C12.4,5.7,12.3,6,12,6.3z"/>
</svg>
