<?xml version="1.0" encoding="utf-8"?>
<!-- Generator: Adobe Illustrator 19.2.1, SVG Export Plug-In . SVG Version: 6.00 Build 0)  -->
<svg version="1.1" id="Layer_1" xmlns="http://www.w3.org/2000/svg" xmlns:xlink="http://www.w3.org/1999/xlink" x="0px" y="0px"
	 viewBox="0 0 21 21" style="enable-background:new 0 0 21 21;" xml:space="preserve">
<path d="M10.5,4.7c-3.2,0-5.8,2.6-5.8,5.8s2.6,5.8,5.8,5.8c3.2,0,5.8-2.6,5.8-5.8S13.7,4.7,10.5,4.7z M10.5,15.3
	c-2.6,0-4.8-2.1-4.8-4.8s2.1-4.8,4.8-4.8s4.8,2.1,4.8,4.8S13.1,15.3,10.5,15.3z"/>
<path d="M16.3,2.3c-1,0-1.9,0.8-1.9,1.9S15.3,6,16.3,6s1.9-0.8,1.9-1.9S17.3,2.3,16.3,2.3z M16.3,4.9c-0.4,0-0.8-0.4-0.8-0.8
	c0-0.4,0.4-0.8,0.8-0.8c0.4,0,0.8,0.4,0.8,0.8C17.1,4.6,16.8,4.9,16.3,4.9z"/>
<path d="M10.5,6.8c-2,0-3.7,1.7-3.7,3.7c0,2,1.7,3.7,3.7,3.7c2,0,3.7-1.7,3.7-3.7C14.2,8.5,12.5,6.8,10.5,6.8z M10.5,13.1
	c-1.5,0-2.6-1.2-2.6-2.6S9,7.9,10.5,7.9c1.5,0,2.6,1.2,2.6,2.6S12,13.1,10.5,13.1z"/>
<path d="M16,0H5C2.1,0,0,2,0,4.9v11.1C0,19,2.1,21,5,21h11c2.9,0,5-2.1,5-5V5C21,2.1,18.9,0,16,0z M20,16c0,2.3-1.7,4-4,4H5
	c-2.3,0-4-1.7-4-4V5c0-2.3,1.7-4,4-4h11c2.3,0,4,1.7,4,4V16z"/>
</svg>
