<?xml version="1.0" encoding="utf-8"?>
<!-- Generator: Adobe Illustrator 19.2.1, SVG Export Plug-In . SVG Version: 6.00 Build 0)  -->
<svg version="1.1" id="Layer_1" xmlns="http://www.w3.org/2000/svg" xmlns:xlink="http://www.w3.org/1999/xlink" x="0px" y="0px"
	 viewBox="0 0 29.6 29.9" style="enable-background:new 0 0 29.6 29.9;" xml:space="preserve">
<path d="M23.8,29.9c-1.2,0-2.7-0.3-4.4-0.9c-3.6-1.4-7.5-4.1-11-7.6C5,17.8,2.3,13.9,0.9,10.3c-1.2-3.3-1.2-6,0-7.2
	c0.2-0.2,0.4-0.4,0.5-0.6C2.6,1.3,3.8-0.1,5.5,0c1.2,0,2.3,0.8,3.4,2.2C12.3,6.5,10.8,8,9,9.7l-0.3,0.3c-0.3,0.3-0.8,1.6,4.2,6.8
	c1.7,1.7,3.1,2.9,4.2,3.6c0.7,0.5,2,1.2,2.5,0.6l0.3-0.3c1.7-1.8,3.2-3.3,7.4,0.1c1.4,1.2,2.1,2.3,2.2,3.5c0.1,1.7-1.3,3-2.4,4.1
	c-0.2,0.2-0.4,0.4-0.6,0.5C26,29.6,25,29.9,23.8,29.9z M5.4,1C4.2,1,3.1,2.2,2.2,3.2C2,3.4,1.8,3.6,1.6,3.7C0.7,4.7,0.8,7.1,1.9,9.9
	c1.3,3.5,3.9,7.3,7.3,10.8c3.4,3.4,7.2,6.1,10.6,7.4c2.8,1.1,5.2,1.2,6.1,0.2c0.2-0.2,0.4-0.4,0.6-0.6c1-1,2.2-2.1,2.1-3.3
	c0-0.8-0.6-1.8-1.8-2.7c-3.5-2.8-4.5-1.8-6.1-0.2l-0.3,0.3c-0.8,0.8-2,0.6-3.8-0.5c-1.2-0.8-2.7-2.1-4.4-3.8C8,13.3,6.7,10.7,8,9.3
	L8.3,9C10,7.4,11,6.4,8.2,2.8C7.2,1.7,6.3,1,5.4,1C5.5,1,5.4,1,5.4,1z"/>
</svg>
