<?xml version="1.0" encoding="utf-8"?>
<!-- Generator: Adobe Illustrator 19.2.1, SVG Export Plug-In . SVG Version: 6.00 Build 0)  -->
<svg version="1.1" id="Слой_12" xmlns="http://www.w3.org/2000/svg" xmlns:xlink="http://www.w3.org/1999/xlink" x="0px"
	 y="0px" viewBox="0 0 40 40" style="enable-background:new 0 0 40 40;" xml:space="preserve">
<style type="text/css">
	.st0{fill:#231F20;}
</style>
<path class="st0" d="M20,40C9,40,0,31,0,20C0,9,9,0,20,0c11,0,20,9,20,20C40,31,31,40,20,40z M20,1.7C9.9,1.7,1.7,9.9,1.7,20
	c0,10.1,8.2,18.3,18.3,18.3c10.1,0,18.3-8.2,18.3-18.3C38.3,9.9,30.1,1.7,20,1.7z"/>
<path class="st0" d="M20,29.6c-0.5,0-0.9-0.4-0.9-0.9V11.3c0-0.5,0.4-0.9,0.9-0.9s0.9,0.4,0.9,0.9v17.4C20.9,29.2,20.5,29.6,20,29.6
	z"/>
<path class="st0" d="M28.7,20.9H11.3c-0.5,0-0.9-0.4-0.9-0.9s0.4-0.9,0.9-0.9h17.4c0.5,0,0.9,0.4,0.9,0.9S29.2,20.9,28.7,20.9z"/>
</svg>
