<?xml version="1.0" encoding="utf-8"?>
<!-- Generator: Adobe Illustrator 19.2.1, SVG Export Plug-In . SVG Version: 6.00 Build 0)  -->
<svg version="1.1" id="Layer_1" xmlns="http://www.w3.org/2000/svg" xmlns:xlink="http://www.w3.org/1999/xlink" x="0px" y="0px"
	 viewBox="0 0 9 14" style="enable-background:new 0 0 9 14;" xml:space="preserve">
<path d="M4.5,0C2,0,0,2,0,4.5c0,2.3,3.7,8.5,4.1,9.3C4.2,13.9,4.3,14,4.5,14c0.2,0,0.3-0.1,0.4-0.2C5.3,13,9,6.8,9,4.5
	C9,2,7,0,4.5,0z M4.5,12.5C3.2,10.3,1,6,1,4.5C1,2.6,2.6,1,4.5,1C6.4,1,8,2.6,8,4.5C8,6,5.8,10.3,4.5,12.5z"/>
<path d="M4.5,3C3.7,3,3,3.7,3,4.5C3,5.3,3.7,6,4.5,6C5.3,6,6,5.3,6,4.5C6,3.7,5.3,3,4.5,3z"/>
</svg>
