<?xml version="1.0" encoding="utf-8"?>
<!-- Generator: Adobe Illustrator 19.2.1, SVG Export Plug-In . SVG Version: 6.00 Build 0)  -->
<svg version="1.1" id="Layer_1" xmlns="http://www.w3.org/2000/svg" xmlns:xlink="http://www.w3.org/1999/xlink" x="0px" y="0px"
	 viewBox="0 0 39 40" style="enable-background:new 0 0 39 40;" xml:space="preserve">
<path d="M38.5,22.3l-0.7-1c-0.6-0.8-0.6-2,0-2.9l0.7-1c0.8-1.2,0.5-2.9-0.8-3.6l-1.1-0.6c-0.9-0.5-1.4-1.5-1.3-2.6l0.2-1.3
	c0.2-1.5-0.8-2.8-2.3-2.9l-1.3-0.1c-1,0-2-0.8-2.2-1.8l-0.3-1.2c-0.4-1.4-2-2.2-3.3-1.6l-1.2,0.5c-1,0.4-2.1,0.2-2.8-0.6l-0.8-0.9
	c-1-1.1-2.7-1.1-3.7,0l-0.8,1c-0.7,0.8-1.8,1.1-2.8,0.7L12.7,2c-1.4-0.6-2.9,0.2-3.3,1.6L9.1,4.8c-0.3,1-1.2,1.8-2.2,1.8L5.6,6.7
	C4.1,6.8,3.1,8.2,3.4,9.6l0.2,1.3c0.2,1-0.3,2.1-1.2,2.6l-1.1,0.6c-1.3,0.7-1.7,2.4-0.8,3.6l0.7,1c0.6,0.8,0.6,2,0,2.9l-0.7,1
	c-0.8,1.2-0.5,2.9,0.8,3.6l1.1,0.6c0.9,0.5,1.4,1.5,1.3,2.6l-0.2,1.3c-0.2,1.5,0.8,2.8,2.3,2.9l1.3,0.1c1,0,2,0.8,2.2,1.8l0.3,1.2
	c0.4,1.4,2,2.2,3.3,1.6l1.2-0.5c1-0.4,2.1-0.2,2.8,0.6l0.8,0.9c1,1.1,2.7,1.1,3.7,0l0.8-1c0.7-0.8,1.8-1.1,2.8-0.7l1.2,0.5
	c1.4,0.6,2.9-0.2,3.3-1.6l0.3-1.2c0.3-1,1.2-1.7,2.2-1.8l1.3-0.1c1.5-0.1,2.5-1.4,2.3-2.9l-0.2-1.3c-0.2-1,0.3-2.1,1.2-2.6l1.1-0.6
	C39,25.2,39.4,23.5,38.5,22.3z M19.5,32.9c-7.1,0-12.8-5.8-12.8-12.9c0-7.1,5.8-12.9,12.8-12.9S32.3,12.9,32.3,20
	C32.3,27.1,26.6,32.9,19.5,32.9z"/>
<path d="M17.9,20.3l-1.1-1.2c-0.7-0.7-1.8-0.7-2.5,0l0,0c-0.7,0.7-0.7,1.8,0,2.5l1.1,1.2l1.3,1.3c0.7,0.7,1.7,0.7,2.4,0l1.3-1.3
	l4.4-4.4c0.7-0.7,0.7-1.8,0-2.5l0,0c-0.7-0.7-1.8-0.7-2.5,0L17.9,20.3z"/>
</svg>
