<?xml version="1.0" encoding="UTF-8"?>
<!DOCTYPE svg PUBLIC "-//W3C//DTD SVG 1.1//EN" "http://www.w3.org/Graphics/SVG/1.1/DTD/svg11.dtd">
<!-- Creator: CorelDRAW X7 -->
<svg xmlns="http://www.w3.org/2000/svg" xml:space="preserve" width="33.0728mm" height="33.0728mm" version="1.1" style="shape-rendering:geometricPrecision; text-rendering:geometricPrecision; image-rendering:optimizeQuality; fill-rule:evenodd; clip-rule:evenodd"
viewBox="0 0 3307 3307"
 xmlns:xlink="http://www.w3.org/1999/xlink">
 <defs>
  <style type="text/css">
   <![CDATA[
    .fil0 {fill:#444444}
   ]]>
  </style>
 </defs>
 <g id="Layer_x0020_1">
  <metadata id="CorelCorpID_0Corel-Layer"/>
  <path class="fil0" d="M543 1161c184,-429 612,-735 1102,-735 612,0 1101,449 1203,1020l408 0c-102,-795 -775,-1427 -1611,-1427 -612,0 -1142,326 -1407,836l-225 -225 0 816 816 0 -285 -285 -1 0z"/>
  <path class="fil0" d="M3277 1854l-837 0 306 286c-183,428 -612,734 -1121,734 -592,0 -1102,-449 -1204,-1020l-408 0c102,796 796,1428 1611,1428 612,0 1143,-347 1428,-836l224 224 0 -816 1 0z"/>
 </g>
</svg>
