<?xml version="1.0" encoding="utf-8"?>
<!-- Generator: Adobe Illustrator 19.2.1, SVG Export Plug-In . SVG Version: 6.00 Build 0)  -->
<svg version="1.1" id="Layer_1" xmlns="http://www.w3.org/2000/svg" xmlns:xlink="http://www.w3.org/1999/xlink" x="0px" y="0px"
	 viewBox="0 0 24 24" style="enable-background:new 0 0 24 24;" xml:space="preserve">
<path d="M12,0C5.4,0,0,5.4,0,12c0,6.6,5.4,12,12,12c6.6,0,12-5.4,12-12C24,5.4,18.6,0,12,0z M12,23C5.9,23,1,18.1,1,12
	C1,5.9,5.9,1,12,1c6.1,0,11,4.9,11,11C23,18.1,18.1,23,12,23z"/>
<path d="M6.5,10c0-0.8,0.7-1.5,1.5-1.5c0.8,0,1.5,0.7,1.5,1.5c0,0.3,0.2,0.5,0.5,0.5c0.3,0,0.5-0.2,0.5-0.5c0-1.4-1.1-2.5-2.5-2.5
	S5.5,8.6,5.5,10c0,0.3,0.2,0.5,0.5,0.5C6.3,10.5,6.5,10.3,6.5,10z"/>
<path d="M16,7.5c-1.4,0-2.5,1.1-2.5,2.5c0,0.3,0.2,0.5,0.5,0.5c0.3,0,0.5-0.2,0.5-0.5c0-0.8,0.7-1.5,1.5-1.5c0.8,0,1.5,0.7,1.5,1.5
	c0,0.3,0.2,0.5,0.5,0.5c0.3,0,0.5-0.2,0.5-0.5C18.5,8.6,17.4,7.5,16,7.5z"/>
<path d="M17.8,13.8c-0.3-0.1-0.5,0-0.6,0.3c-0.8,2.1-2.8,3.5-5.1,3.5c-2.3,0-4.4-1.5-5.2-3.7c-0.1-0.3-0.4-0.4-0.6-0.3
	c-0.3,0.1-0.4,0.4-0.3,0.6c0.9,2.6,3.4,4.4,6.1,4.4c2.7,0,5-1.6,6-4.1C18.1,14.2,18,13.9,17.8,13.8z"/>
</svg>
